{
    "accessors": {
        "Courtyard Grass_buffer_accessor_0": {
            "bufferView": "Courtyard Grass_buffer_view_0",
            "byteOffset": 0,
            "byteStride": 24,
            "componentType": 5126,
            "count": 24,
            "max": [
                14.0,
                14.0,
                0
            ],
            "min": [
                -14.0,
                -14.0,
                0
            ],
            "type": "VEC3"
        },
        "Courtyard Grass_buffer_accessor_1": {
            "bufferView": "Courtyard Grass_buffer_view_0",
            "byteOffset": 12,
            "byteStride": 24,
            "componentType": 5126,
            "count": 24,
            "max": [
                0,
                0,
                1.0
            ],
            "min": [
                0,
                0,
                0
            ],
            "type": "VEC3"
        },
        "Courtyard Grass_buffer_accessor_2": {
            "bufferView": "Courtyard Grass_buffer_view_1",
            "byteOffset": 0,
            "byteStride": 2,
            "componentType": 5123,
            "count": 48,
            "max": [
                23
            ],
            "min": [
                0
            ],
            "type": "SCALAR"
        },
        "Courtyard Walk_buffer_accessor_0": {
            "bufferView": "Courtyard Walk_buffer_view_0",
            "byteOffset": 0,
            "byteStride": 24,
            "componentType": 5126,
            "count": 108,
            "max": [
                14.0,
                14.0,
                0.10000000149011612
            ],
            "min": [
                -14.0,
                -14.0,
                0
            ],
            "type": "VEC3"
        },
        "Courtyard Walk_buffer_accessor_1": {
            "bufferView": "Courtyard Walk_buffer_view_0",
            "byteOffset": 12,
            "byteStride": 24,
            "componentType": 5126,
            "count": 108,
            "max": [
                1.0,
                1.0,
                1.0
            ],
            "min": [
                -1.0,
                -1.0,
                0
            ],
            "type": "VEC3"
        },
        "Courtyard Walk_buffer_accessor_2": {
            "bufferView": "Courtyard Walk_buffer_view_1",
            "byteOffset": 0,
            "byteStride": 2,
            "componentType": 5123,
            "count": 174,
            "max": [
                107
            ],
            "min": [
                0
            ],
            "type": "SCALAR"
        },
        "Fountain_buffer_accessor_0": {
            "bufferView": "Fountain_buffer_view_0",
            "byteOffset": 0,
            "byteStride": 24,
            "componentType": 5126,
            "count": 196,
            "max": [
                1.4999998807907104,
                1.5,
                0.25
            ],
            "min": [
                -1.5000001192092896,
                -1.5,
                0
            ],
            "type": "VEC3"
        },
        "Fountain_buffer_accessor_1": {
            "bufferView": "Fountain_buffer_view_0",
            "byteOffset": 12,
            "byteStride": 24,
            "componentType": 5126,
            "count": 196,
            "max": [
                0.9807853102684021,
                0.9807853698730469,
                1.0
            ],
            "min": [
                -0.9807853698730469,
                -0.9807853698730469,
                0
            ],
            "type": "VEC3"
        },
        "Fountain_buffer_accessor_2": {
            "bufferView": "Fountain_buffer_view_1",
            "byteOffset": 0,
            "byteStride": 2,
            "componentType": 5123,
            "count": 330,
            "max": [
                195
            ],
            "min": [
                0
            ],
            "type": "SCALAR"
        },
        "Sidewalk_buffer_accessor_0": {
            "bufferView": "Sidewalk_buffer_view_0",
            "byteOffset": 0,
            "byteStride": 24,
            "componentType": 5126,
            "count": 20,
            "max": [
                21.0,
                1.0,
                0.10000000149011612
            ],
            "min": [
                -21.0,
                -1.0,
                0
            ],
            "type": "VEC3"
        },
        "Sidewalk_buffer_accessor_1": {
            "bufferView": "Sidewalk_buffer_view_0",
            "byteOffset": 12,
            "byteStride": 24,
            "componentType": 5126,
            "count": 20,
            "max": [
                1.0,
                1.0,
                1.0
            ],
            "min": [
                -1.0,
                -1.0,
                0
            ],
            "type": "VEC3"
        },
        "Sidewalk_buffer_accessor_2": {
            "bufferView": "Sidewalk_buffer_view_1",
            "byteOffset": 0,
            "byteStride": 2,
            "componentType": 5123,
            "count": 30,
            "max": [
                19
            ],
            "min": [
                0
            ],
            "type": "SCALAR"
        }
    },
    "asset": {
        "profile": {
            "api": "WebGL",
            "version": "1.0.3"
        },
        "version": "1.0"
    },
    "bufferViews": {
        "Courtyard Grass_buffer_view_0": {
            "buffer": "Courtyard Grass_buffer",
            "byteLength": 576,
            "byteOffset": 0,
            "target": 34962
        },
        "Courtyard Grass_buffer_view_1": {
            "buffer": "Courtyard Grass_buffer",
            "byteLength": 96,
            "byteOffset": 576,
            "target": 34963
        },
        "Courtyard Walk_buffer_view_0": {
            "buffer": "Courtyard Walk_buffer",
            "byteLength": 2592,
            "byteOffset": 0,
            "target": 34962
        },
        "Courtyard Walk_buffer_view_1": {
            "buffer": "Courtyard Walk_buffer",
            "byteLength": 348,
            "byteOffset": 2592,
            "target": 34963
        },
        "Fountain_buffer_view_0": {
            "buffer": "Fountain_buffer",
            "byteLength": 4704,
            "byteOffset": 0,
            "target": 34962
        },
        "Fountain_buffer_view_1": {
            "buffer": "Fountain_buffer",
            "byteLength": 660,
            "byteOffset": 4704,
            "target": 34963
        },
        "Sidewalk_buffer_view_0": {
            "buffer": "Sidewalk_buffer",
            "byteLength": 480,
            "byteOffset": 0,
            "target": 34962
        },
        "Sidewalk_buffer_view_1": {
            "buffer": "Sidewalk_buffer",
            "byteLength": 60,
            "byteOffset": 480,
            "target": 34963
        }
    },
    "buffers": {
        "Courtyard Grass_buffer": {
            "byteLength": 672,
            "type": "arraybuffer",
            "uri": "data:text/plain;base64,"
        },
        "Courtyard Walk_buffer": {
            "byteLength": 2940,
            "type": "arraybuffer",
            "uri": "data:text/plain;base64,"
        },
        "Fountain_buffer": {
            "byteLength": 5364,
            "type": "arraybuffer",
            "uri": "data:text/plain;base64,"
        },
        "Sidewalk_buffer": {
            "byteLength": 540,
            "type": "arraybuffer",
            "uri": "data:text/plain;base64,"
        }
    },
    "extensions": {
        "BLENDER_actions": {
            "actions": {}
        }
    },
    "extensionsUsed": [
        "BLENDER_actions",
        "BLENDER_physics"
    ],
    "extras": {
        "lights": {
            "Sun": {
                "directional": {
                    "color": [
                        1.0,
                        1.0,
                        1.0
                    ]
                },
                "type": "directional"
            }
        }
    },
    "materials": {
        "Material": {
            "values": {
                "ambient": [
                    1.0,
                    1.0,
                    1.0,
                    1.0
                ],
                "diffuse": [
                    0.64000004529953,
                    0.64000004529953,
                    0.64000004529953,
                    1.0
                ],
                "emission": [
                    0.0,
                    0.0,
                    0.0,
                    1.0
                ],
                "shininess": 50,
                "specular": [
                    0.5,
                    0.5,
                    0.5,
                    1.0
                ],
                "textures": [],
                "uv_layers": [
                    ""
                ]
            }
        }
    },
    "meshes": {
        "Courtyard Grass": {
            "name": "Courtyard Grass",
            "primitives": [
                {
                    "attributes": {
                        "NORMAL": "Courtyard Grass_buffer_accessor_1",
                        "POSITION": "Courtyard Grass_buffer_accessor_0"
                    },
                    "indices": "Courtyard Grass_buffer_accessor_2",
                    "material": "",
                    "mode": 4
                }
            ]
        },
        "Courtyard Walk": {
            "name": "Courtyard Walk",
            "primitives": [
                {
                    "attributes": {
                        "NORMAL": "Courtyard Walk_buffer_accessor_1",
                        "POSITION": "Courtyard Walk_buffer_accessor_0"
                    },
                    "indices": "Courtyard Walk_buffer_accessor_2",
                    "material": "",
                    "mode": 4
                }
            ]
        },
        "Fountain": {
            "name": "Fountain",
            "primitives": [
                {
                    "attributes": {
                        "NORMAL": "Fountain_buffer_accessor_1",
                        "POSITION": "Fountain_buffer_accessor_0"
                    },
                    "indices": "Fountain_buffer_accessor_2",
                    "material": "Material",
                    "mode": 4
                }
            ]
        },
        "Sidewalk": {
            "name": "Sidewalk",
            "primitives": [
                {
                    "attributes": {
                        "NORMAL": "Sidewalk_buffer_accessor_1",
                        "POSITION": "Sidewalk_buffer_accessor_0"
                    },
                    "indices": "Sidewalk_buffer_accessor_2",
                    "material": "",
                    "mode": 4
                }
            ]
        }
    },
    "nodes": {
        "Courtyard Grass": {
            "children": [],
            "matrix": [
                1.0,
                0.0,
                0.0,
                0.0,
                0.0,
                1.0,
                0.0,
                0.0,
                0.0,
                0.0,
                1.0,
                0.0,
                0.0,
                0.0,
                0.0,
                1.0
            ],
            "meshes": [
                "Courtyard Grass"
            ],
            "name": "Courtyard Grass"
        },
        "Courtyard Walk": {
            "children": [],
            "matrix": [
                1.0,
                0.0,
                0.0,
                0.0,
                0.0,
                1.0,
                0.0,
                0.0,
                0.0,
                0.0,
                1.0,
                0.0,
                0.0,
                0.0,
                0.0,
                1.0
            ],
            "meshes": [
                "Courtyard Walk"
            ],
            "name": "Courtyard Walk"
        },
        "Fountain": {
            "children": [],
            "matrix": [
                1.0,
                0.0,
                0.0,
                0.0,
                0.0,
                1.0,
                0.0,
                0.0,
                0.0,
                0.0,
                1.0,
                0.0,
                0.0,
                0.0,
                0.0,
                1.0
            ],
            "meshes": [
                "Fountain"
            ],
            "name": "Fountain"
        },
        "Player": {
            "camera": "Player",
            "children": [],
            "matrix": [
                1.0,
                0.0,
                0.0,
                0.0,
                0.0,
                -4.371138828673793e-08,
                1.0,
                0.0,
                0.0,
                -1.0,
                -4.371138828673793e-08,
                0.0,
                0.0,
                -7.5,
                1.7999999523162842,
                1.0
            ],
            "name": "Player"
        },
        "Sidewalk": {
            "children": [],
            "matrix": [
                1.0,
                0.0,
                0.0,
                0.0,
                0.0,
                1.0,
                0.0,
                0.0,
                0.0,
                0.0,
                1.0,
                0.0,
                0.0,
                -15.0,
                0.0,
                1.0
            ],
            "meshes": [
                "Sidewalk"
            ],
            "name": "Sidewalk"
        },
        "Sun": {
            "children": [],
            "extras": {
                "light": "Sun"
            },
            "matrix": [
                -0.28698328137397766,
                0.9551711678504944,
                -0.07272276282310486,
                0.0,
                -0.8063348531723022,
                -0.19988326728343964,
                0.5566603541374207,
                0.0,
                0.5171698927879333,
                0.21839112043380737,
                0.8275509476661682,
                0.0,
                4.076245307922363,
                1.0054539442062378,
                5.903861999511719,
                1.0
            ],
            "name": "Sun"
        }
    },
    "samplers": {
        "default": {}
    },
    "scene": "Scene",
    "scenes": {
        "Scene": {
            "extras": {
                "active_camera": "Player",
                "background_color": [
                    0.05087608844041824,
                    0.05087608844041824,
                    0.05087608844041824
                ],
                "frames_per_second": 24,
                "hidden_nodes": []
            },
            "nodes": [
                "Courtyard Grass",
                "Sidewalk",
                "Courtyard Walk",
                "Fountain",
                "Sun",
                "Player"
            ]
        }
    }
}
